<?xml version="1.0" standalone="no"?><!DOCTYPE svg PUBLIC "-//W3C//DTD SVG 1.1//EN" "http://www.w3.org/Graphics/SVG/1.1/DTD/svg11.dtd"><svg class="icon" width="200px" height="199.80px" viewBox="0 0 1025 1024" version="1.1" xmlns="http://www.w3.org/2000/svg"><path d="M1004.807056 214.509372 808.361632 18.063947c-27.095921-27.095921-71.126792-27.095921-98.222712 0L515.951488 214.509372c-27.095921 27.095921-27.095921 71.126792 0 98.222712L711.267916 508.048512c27.095921 27.095921 71.126792 27.095921 98.222712 0L1004.807056 311.603087C1030.77398 284.507166 1030.77398 240.476295 1004.807056 214.509372L1004.807056 214.509372zM759.814774 458.372657 564.498346 263.056229 759.814774 67.739802l195.316428 195.316428L759.814774 458.372657 759.814774 458.372657zM352.246968 63.223815 64.352811 63.223815C25.966924 63.223815 0 85.803749 0 124.189636l0 290.15215c0 38.385888 25.966924 64.352811 64.352811 64.352811l287.894157 0c38.385888 0 64.352811-25.966924 64.352811-64.352811L416.599779 126.44763C416.599779 88.061742 390.632856 63.223815 352.246968 63.223815L352.246968 63.223815zM352.246968 607.400221 64.352811 607.400221c-38.385888 0-64.352811 32.740904-64.352811 71.126792l0 276.60419c0 38.385888 30.482911 68.868798 68.868798 68.868798l276.60419 0c38.385888 0 71.126792-25.966924 71.126792-64.352811L416.599779 671.753032c0-38.385888-32.740904-63.223815-71.126792-63.223815L352.246968 607.400221zM833.199559 607.400221 608.529217 607.400221c-38.385888 0-64.352811 25.966924-64.352811 64.352811L544.176406 959.647189c0 38.385888 38.385888 64.352811 76.771775 64.352811l276.60419 0c38.385888 0 63.223815-25.966924 63.223815-64.352811L960.776185 671.753032c0-38.385888-25.966924-64.352811-64.352811-64.352811L833.199559 607.400221z" /></svg>