<?xml version="1.0" standalone="no"?><!DOCTYPE svg PUBLIC "-//W3C//DTD SVG 1.1//EN" "http://www.w3.org/Graphics/SVG/1.1/DTD/svg11.dtd"><svg t="1565921866447" class="icon" viewBox="0 0 1000 1000" version="1.1" xmlns="http://www.w3.org/2000/svg" p-id="41044" xmlns:xlink="http://www.w3.org/1999/xlink" width="128" height="128"><defs><style type="text/css"></style></defs><path d="M78.7249 920.0992h436.4339915473843V47.255960458808886H78.72485226910459V920.0991727608681zM348.0853 155.1888h109.10849788684608v109.10402746937575H348.08526968321183V155.18878200580002zM348.0853 374.569h109.10849788684608V483.67207033631195H348.08526968321183V374.56904218939553zM348.0853 591.6039h109.10849788684608v109.11502001642884H348.08526968321183V591.6038925608437zM133.2791 155.1888h109.10849788684608v109.10402746937575H133.27910121252762V155.18878200580002zM133.2791 374.569h109.10849788684608V483.67207033631195H133.27910121252762V374.56904218939553zM133.2791 591.6039h109.10849788684608v109.11502001642884H133.27910121252762V591.6038925608437zM569.7121 323.6656l381.8767 0 0 49.9951-381.8767 0 0-49.9951ZM569.7121 920.0992 678.8196 920.0992 678.8196 729.1926 842.4823 729.1926 842.4823 920.0992 951.5888 920.0992 951.5888 433.7 569.7121 433.7Z" p-id="41045" fill="#ffffff"></path></svg>