<?xml version="1.0" standalone="no"?><!DOCTYPE svg PUBLIC "-//W3C//DTD SVG 1.1//EN" "http://www.w3.org/Graphics/SVG/1.1/DTD/svg11.dtd"><svg class="icon" width="200px" height="200.00px" viewBox="0 0 1024 1024" version="1.1" xmlns="http://www.w3.org/2000/svg"><path d="M742.300389 139.256031c71.321401 0 135.470817-30.281712 179.100389-53.192218 0 0-2.988327 106.982101 11.754086 211.573541 10.957198 78.094942 30.08249 193.64358 30.08249 193.64358-43.828794 22.910506-149.615564 77.098833-220.936965 77.098833-71.321401 0-135.470817-12.550973-179.100389-35.461479-43.828794-22.910506-93.833463-39.445914-165.154864-39.445914-71.321401 0-103.595331 28.289494-147.224903 51.2l-39.844358-433.108171c43.828794-22.910506 101.802335-51.2 173.123735-51.2 71.321401 0 135.470817 16.535409 179.100389 39.445914C607.028794 122.720623 670.978988 139.256031 742.300389 139.256031M121.32607 13.945525c25.699611 0 46.617899 20.719066 46.617899 46.617899l78.493385 915.822568-93.036576 7.968872L74.708171 60.563424C74.708171 34.664591 95.427237 13.945525 121.32607 13.945525" fill="#ffffff" /><path d="M246.636576 977.581323c0 25.699611-20.918288 46.418677-46.418677 46.418677l0 0c-25.699611 0-46.418677-20.918288-46.418677-46.418677l0 0c0-25.699611 20.918288-46.418677 46.418677-46.418677l0 0C225.718288 930.963424 246.636576 951.881712 246.636576 977.581323L246.636576 977.581323z" fill="#ffffff" /></svg>