<?xml version="1.0" standalone="no"?><!DOCTYPE svg PUBLIC "-//W3C//DTD SVG 1.1//EN" "http://www.w3.org/Graphics/SVG/1.1/DTD/svg11.dtd"><svg t="1565921358440" class="icon" viewBox="0 0 1024 1024" version="1.1" xmlns="http://www.w3.org/2000/svg" p-id="22911" xmlns:xlink="http://www.w3.org/1999/xlink" width="128" height="128"><defs><style type="text/css"></style></defs><path d="M497.984876 0S409.030436 211.698769 64.027998 211.698769v210.418849s-0.063996 176.436973 50.940816 293.357665c0 0 42.23736 110.71308 130.231861 185.908381 19.006812 16.190988 116.47272 94.522092 252.720205 122.616336 136.311481-28.094244 233.777389-106.361352 252.720205-122.616336 87.9945-75.131304 130.231861-185.908381 130.23186-185.908381 51.004812-116.984688 50.940816-293.357665 50.940817-293.357665V211.698769C586.939316 211.698769 497.984876 0 497.984876 0z m0 806.349603a38.3976 38.3976 0 1 1 0.063996-76.859196 38.3976 38.3976 0 0 1-0.063996 76.859196z m38.3976-179.188801a38.3976 38.3976 0 0 1-76.7952 0V255.984001a38.3976 38.3976 0 0 1 76.7952 0v371.176801z" p-id="22912" fill="#ffffff"></path></svg>