<?xml version="1.0" standalone="no"?><!DOCTYPE svg PUBLIC "-//W3C//DTD SVG 1.1//EN" "http://www.w3.org/Graphics/SVG/1.1/DTD/svg11.dtd"><svg class="icon" width="200px" height="200.00px" viewBox="0 0 1024 1024" version="1.1" xmlns="http://www.w3.org/2000/svg"><path d="M236.48 944.256H163.2V605.312a348.48 348.48 0 0 1 348.352-348.416 348.48 348.48 0 0 1 348.352 348.416v338.944h-80.768M536.384 397.376l-171.456 283.264h137.152l-34.24 211.84L639.36 609.28H502.08l34.304-211.904z m263.68-310.72a33.984 33.984 0 0 1 12.032 46.528l-61.824 107.584-58.56-33.6 61.888-107.648a34.368 34.368 0 0 1 46.464-12.864zM511.552 7.296c20.096 0 36.288 15.552 36.288 34.432v121.024H475.2V41.024c0-18.176 16.192-33.728 36.352-33.728z m-288.512 79.36a33.28 33.28 0 0 1 45.76 12.16l61.824 107.648-58.496 33.6-61.888-107.648a34.24 34.24 0 0 1 12.8-45.76z m-211.2 212.672a33.92 33.92 0 0 1 45.76-12.8l106.88 61.824-33.6 58.496-107.008-61.824a33.152 33.152 0 0 1-12.032-45.696z m999.424 0a33.92 33.92 0 0 1-12.096 46.336l-107.008 61.824-33.6-58.496 106.88-61.824a32.128 32.128 0 0 1 45.824 12.16c0-0.768 0-0.768 0 0zM44.096 944.256h935.488c20.16 0 36.288 16.128 36.288 36.288a36.096 36.096 0 0 1-36.288 36.224H44.096a36.16 36.16 0 0 1-36.352-36.224 36.16 36.16 0 0 1 36.352-36.288z m0 0" fill="#ffffff" /></svg>