<?xml version="1.0" standalone="no"?><!DOCTYPE svg PUBLIC "-//W3C//DTD SVG 1.1//EN" "http://www.w3.org/Graphics/SVG/1.1/DTD/svg11.dtd"><svg class="icon" width="200px" height="200.00px" viewBox="0 0 1024 1024" version="1.1" xmlns="http://www.w3.org/2000/svg"><path d="M512.5 959C265.7 959 65 758.3 65 511.5S265.7 64 512.5 64 960 264.7 960 511.5 759.3 959 512.5 959z m0-820.4c-205.6 0-372.9 167.3-372.9 372.9s167.3 372.9 372.9 372.9 372.9-167.3 372.9-372.9-167.3-372.9-372.9-372.9z" fill="#ffffff" /><path d="M512.5 511.5m-223.8 0a223.8 223.8 0 1 0 447.6 0 223.8 223.8 0 1 0-447.6 0Z" fill="#ffffff" /></svg>