<?xml version="1.0" standalone="no"?><!DOCTYPE svg PUBLIC "-//W3C//DTD SVG 1.1//EN" "http://www.w3.org/Graphics/SVG/1.1/DTD/svg11.dtd"><svg class="icon" width="200px" height="199.22px" viewBox="0 0 1028 1024" version="1.1" xmlns="http://www.w3.org/2000/svg"><title>删除</title><path d="M511.477091 953.980273c-118.826316 0-230.592842-46.038546-314.715775-129.665175S66.400293 629.320009 66.400293 510.891759s46.337351-229.698472 130.361023-313.324078 195.790198-129.765459 314.715775-129.765459 230.592842 46.038546 314.616514 129.665175 130.361023 194.995089 130.361023 313.324078-46.337351 229.698472-130.361023 313.423339-195.789175 129.765459-314.616514 129.765459z m0-822.637899c-101.922321 0-197.778482 39.476083-269.771144 111.169939s-111.765503 166.95343-111.765503 268.379446 39.674605 196.685591 111.667266 268.279163S409.455509 890.340861 511.477091 890.340861s197.779505-39.476083 269.771143-111.169939S892.915499 612.216469 892.915499 510.891759s-39.675628-196.585307-111.667265-268.279162-167.847799-111.270223-269.771143-111.270223zM734.016513 542.611182c17.599843 0.795109 32.416294-12.827143 33.211402-30.42801s-12.827143-32.416294-30.426986-33.211403H288.938692c-17.599843 0.795109-31.123858 15.611559-30.42801 33.211403 0.695848 16.505929 13.921058 29.731138 30.42801 30.42801h445.077821z"  /></svg>