<?xml version="1.0" standalone="no"?><!DOCTYPE svg PUBLIC "-//W3C//DTD SVG 1.1//EN" "http://www.w3.org/Graphics/SVG/1.1/DTD/svg11.dtd"><svg class="icon" width="200px" height="200.00px" viewBox="0 0 1024 1024" version="1.1" xmlns="http://www.w3.org/2000/svg"><path d="M801.932622 1023.452727h-238.036866c-6.559238-83.788977-13.22427-167.472159-19.995096-253.90599H327.974774c-21.793597 0-25.390599 10.579416-26.977511 29.410777-6.770826 74.902267-15.022771 149.804534-22.745745 224.706801H60.421338c-10.579416 0-24.755834 4.020178-19.783509-15.76333 3.385413-12.589505 7.61718-25.073216 9.944652-37.87431C97.449294 719.400304 143.892932 469.514493 191.500305 219.522887c14.070624-73.526943 31.738249-146.419121 47.078402-219.522887h134.887557c-6.665032 84.63533-13.22427 169.905425-20.100891 257.397197h140.177265c-1.904295-26.025364-3.80859-49.30008-5.395502-72.680589Q482.328457 92.358304 476.615572 0h134.887557c15.76333 78.816651 29.939748 158.056479 47.924756 236.449953 8.675121 37.662722 10.579416 67.073499-28.776012 90.24242-14.176418 8.463533-38.509075 26.977511-16.398095 55.118759 20.100891-50.781198 45.174107-72.574795 99.869689-88.338126S769.242226 275.064822 739.302478 227.140067c-16.503889-25.91957-24.332657-57.234642-34.80628-82.942624h198.99882c-15.974919 31.738249-29.199189 64.428645-47.184197 93.627834s-17.350243 42.317665 16.398095 50.675404a193.603317 193.603317 0 0 1 111.718636 68.554617V380.858985c-54.378199 28.881806-113.305548 29.833954-170.328602 31.738248 0-34.277309 1.057942-65.06341-0.634765-95.214746-0.528971-8.251945-9.41568-16.080713-14.388006-24.121069a89.819244 89.819244 0 0 0-10.579416 26.342747c-1.26953 29.72816 0 59.562113 0 93.627833l-103.149308-6.453444a293.473006 293.473006 0 0 1 12.060534 37.34534C716.345144 544.310965 735.917064 645.34439 754.11366 746.800992c16.609683 92.146715 31.949837 184.187637 47.818962 276.651735z m-486.653147-385.513928h214.338973l-23.063128-247.981516H338.765779c-7.828768 82.307858-15.445948 163.240393-23.486304 247.981516z"  /><path d="M849.539995 0a284.480503 284.480503 0 0 0 44.75093 23.063127c32.690396 10.579416 33.854132 28.670218 17.350243 52.897082-14.282212 21.158832-11.95474 58.609966-49.194285 58.080995-47.818961-0.740559-97.8596 2.327472-142.398943-11.214181-18.831361-5.289708-26.871717-48.771109-37.556928-76.171797-1.375324-3.385413 9.521475-13.859035 16.50389-17.985008 17.879213-10.579416 36.816369-19.254538 55.330347-28.670218z m-78.499269 24.861628c5.395502 21.158832 6.982415 38.403281 14.599595 52.050728 2.327472 4.337561 27.400688 3.80859 30.468718-1.375324 8.146151-13.647447 9.944651-31.103484 15.23436-50.675404z"  /></svg>