<?xml version="1.0" standalone="no"?><!DOCTYPE svg PUBLIC "-//W3C//DTD SVG 1.1//EN" "http://www.w3.org/Graphics/SVG/1.1/DTD/svg11.dtd"><svg class="icon" width="200px" height="200.00px" viewBox="0 0 1024 1024" version="1.1" xmlns="http://www.w3.org/2000/svg"><title>新增</title><path d="M480 480v-160a32 32 0 0 1 64 0v160h160a32 32 0 0 1 0 64h-160v160a32 32 0 0 1-64 0v-160h-160a32 32 0 0 1 0-64h160z m32 480C264.576 960 64 759.424 64 512S264.576 64 512 64s448 200.576 448 448-200.576 448-448 448z m0-64c212.064 0 384-171.936 384-384S724.064 128 512 128 128 299.936 128 512s171.936 384 384 384z" /></svg>