<?xml version="1.0" standalone="no"?><!DOCTYPE svg PUBLIC "-//W3C//DTD SVG 1.1//EN" "http://www.w3.org/Graphics/SVG/1.1/DTD/svg11.dtd"><svg class="icon" width="200px" height="185.51px" viewBox="0 0 1104 1024" version="1.1" xmlns="http://www.w3.org/2000/svg"><path d="M549.271552 1023.90011H1.023875c0-7.167126-1.023875-15.333154-1.023875-22.475308v-978.924522c0-7.167126 1.023875-15.333154 1.023875-22.475307h548.247677l-1.023875 452.003414c0 189.242092 1.023875 380.506963 1.023875 571.871723z m-145.240434-497.128838h49.096062c16.35703 0 23.524156-6.118278 23.524155-22.475308v-87.978344c0-17.480795-9.214876-24.548031-25.571906-24.548031h-51.068894c-70.572467 0-65.478064-5.119376-65.478063 64.429216 0 81.835093-7.142153 69.548592 69.573564 70.572467z m2.04775-396.863992h-10.238751c-66.476966 0-62.431411-7.167126-62.431411 62.43141 0 79.76237-9.189904 71.596342 72.64519 71.596342 78.763468 0 69.548592 4.994513 69.548592-65.478063 0-78.763468 9.214876-68.524716-69.548592-68.524717z m-1.023875 661.772954h43.976686c19.428655 1.023875 28.643531-7.167126 27.619656-26.595781-1.023875-27.619656 0-54.215437 0-81.835093 0-17.480795-7.167126-25.571906-24.548031-24.548031h-56.263187c-65.453091 0-62.431411-7.142153-62.431411 63.430313 1.023875 76.715718-8.166029 68.524716 71.621315 69.548592zM141.144934 526.771272c15.333154 0 28.643531-1.023875 43.976685 0 19.428655 1.023875 28.643531-6.118278 27.619656-26.570809-1.023875-27.619656 0-54.215437 0-81.835093 0-17.480795-7.167126-25.571906-24.54803-25.571906H96.144373c-17.480795 0-25.571906 7.167126-25.571906 24.548031v83.882843c0 17.480795 6.143251 25.546933 24.548031 24.523059 16.35703 0 30.691282 1.023875 46.024436 1.023875z m0 263.91006h46.024436c18.40478 0 26.595781-8.191001 25.571905-26.595781-1.023875-24.548031 0-49.096061 0-73.644093 0-30.691282-2.022778-31.715157-33.737934-32.739031H135.001683c-71.596342 0-64.429216-7.142153-64.429216 64.454188 1.023875 76.715718-10.238751 68.524716 70.572467 68.524717z m2.04775-660.774052h-10.238752c-68.524716 0-62.431411-7.167126-62.43141 62.43141 0 79.76237-11.262627 71.596342 74.667967 72.620217 75.691842 0 66.476966 5.119376 66.476966-65.478063 1.023875-79.787343 10.238751-69.548592-68.524716-69.548592z m489.062699 893.99283c0-77.739593-1.023875-157.526936-1.023875-235.266529V473.57971c10.238751-0.998903 17.480795-2.022778 23.524156-2.022778h427.430411c7.167126 0 15.358127 2.022778 22.475308 3.046653v549.396415h-133.952835v-224.003902h-210.718498v224.003902zM1102.638605 393.817339H632.255383v-74.667967a49.945129 49.945129 0 0 1 7.167126-3.071625h464.489697v77.739592z m0 0" /></svg>