<?xml version="1.0" standalone="no"?><!DOCTYPE svg PUBLIC "-//W3C//DTD SVG 1.1//EN" "http://www.w3.org/Graphics/SVG/1.1/DTD/svg11.dtd"><svg class="icon" width="200px" height="200.00px" viewBox="0 0 1024 1024" version="1.1" xmlns="http://www.w3.org/2000/svg"><title>清除</title><path d="M513.024 739.84c20.992 0 37.888 16.896 37.888 37.376v152.576H475.136v-152.576c0-20.48 17.408-37.376 37.888-37.376z m153.088 0c20.992 0 37.888 16.896 37.888 37.376v152.576h-75.776v-152.576c0.512-20.48 17.408-37.376 37.888-37.376z m-306.176 0c20.992 0 37.888 16.896 37.888 37.376v152.576H322.048v-152.576c0-20.48 16.896-37.376 37.888-37.376z m496.64-190.464v380.416H169.472v-380.416h-40.448c-12.288 0-24.576-2.048-35.84-5.632-0.512 3.072-0.512 5.632-0.512 8.704V926.72c0 43.52 35.84 79.36 79.36 79.36h681.472c43.52 0 79.36-35.84 79.36-79.36v-374.272c0-3.584 0-6.656-0.512-10.24-12.288 4.608-25.088 7.168-38.912 7.168h-36.864zM129.024 320.512h231.424v76.8H129.536c-19.968 0-36.352 16.384-36.352 36.352v3.584c0 19.968 16.384 36.352 36.352 36.352h768c19.968 0 36.352-16.384 36.352-36.352v-3.584c0-19.968-16.384-36.352-36.352-36.352H665.6v-76.8h227.84c61.952 0 112.64 50.688 112.64 112.128v4.608c0 61.44-50.688 112.128-112.64 112.128H129.024c-61.952 0-112.64-50.688-112.64-112.128v-4.608c0-61.44 50.688-112.128 112.64-112.128zM476.16 16.896h73.728c63.488 0 115.712 52.224 115.712 115.2v265.216h-76.288V132.096c0-22.016-17.92-39.424-39.936-39.424H476.672c-22.016 0-39.936 17.92-39.936 39.424v264.704H360.448V132.096C360.448 68.608 412.672 16.896 476.16 16.896z" /></svg>