<?xml version="1.0" standalone="no"?><!DOCTYPE svg PUBLIC "-//W3C//DTD SVG 1.1//EN" "http://www.w3.org/Graphics/SVG/1.1/DTD/svg11.dtd"><svg t="1565921518667" class="icon" viewBox="0 0 1024 1024" version="1.1" xmlns="http://www.w3.org/2000/svg" p-id="30272" xmlns:xlink="http://www.w3.org/1999/xlink" width="128" height="128"><defs><style type="text/css"></style></defs><path d="M522.24 826.368v92.16h92.16l272.384-272.384-92.16-92.16zM957.44 575.488c9.216-9.216 9.216-24.576 0-34.816l-57.344-57.344c-4.096-5.12-11.264-7.168-17.408-7.168-6.144 0-12.288 3.072-17.408 7.168l-45.056 45.056 92.16 92.16 45.056-45.056z" fill="#ffffff" p-id="30273"></path><path d="M783.36 237.568c0-36.864-30.72-67.584-67.584-67.584H598.016v89.088c0 7.168-6.144 13.312-13.312 13.312H274.432c-7.168 0-13.312-6.144-13.312-13.312v-89.088H143.36c-36.864 0-67.584 30.72-67.584 67.584v657.408c0 36.864 30.72 67.584 67.584 67.584h367.616l-93.184-93.184 365.568-365.568v-266.24zM269.312 458.752c0-4.096 2.048-8.192 5.12-11.264 3.072-3.072 7.168-4.096 11.264-4.096h288.768c9.216 0 16.384 7.168 16.384 15.36v15.36c0 4.096-2.048 8.192-5.12 11.264-3.072 3.072-7.168 4.096-11.264 4.096H284.672c-4.096 0-8.192-2.048-11.264-4.096-3.072-3.072-5.12-7.168-5.12-11.264v-15.36z m316.416 199.68c-3.072 3.072-7.168 4.096-11.264 4.096H284.672c-4.096 0-8.192-2.048-11.264-4.096-3.072-3.072-5.12-7.168-5.12-11.264v-15.36c0-4.096 2.048-8.192 5.12-11.264 3.072-3.072 7.168-4.096 11.264-4.096H573.44c9.216 0 16.384 7.168 16.384 15.36v15.36c0 4.096-1.024 8.192-4.096 11.264z" fill="#ffffff" p-id="30274"></path><path d="M429.056 59.392c46.08 17.408 74.752 72.704 50.176 117.76l-58.368-59.392 22.528-22.528L429.056 81.92c-8.192 7.168-20.48 9.216-28.672 6.144L355.328 133.12l25.6 25.6 16.384-16.384 58.368 59.392c-28.672 15.36-68.608 11.264-98.304-19.456L345.088 194.56c4.096 6.144 8.192 11.264 12.288 15.36l-2.048 1.024h-2.048c-7.168 0-13.312 6.144-13.312 14.336 0 7.168 6.144 13.312 13.312 13.312 7.168 0 14.336-6.144 14.336-13.312v-2.048l2.048-2.048c33.792 22.528 70.656 25.6 110.592 2.048l16.384 16.384 22.528-22.528-17.408-17.408c48.128-71.68-15.36-142.336-72.704-140.288z m0 0" fill="#ffffff" p-id="30275"></path></svg>