<?xml version="1.0" standalone="no"?><!DOCTYPE svg PUBLIC "-//W3C//DTD SVG 1.1//EN" "http://www.w3.org/Graphics/SVG/1.1/DTD/svg11.dtd"><svg class="icon" width="200px" height="199.42px" viewBox="0 0 1027 1024" version="1.1" xmlns="http://www.w3.org/2000/svg"><path d="M996.689804 858.652282a78.249925 78.249925 0 0 0 29.612227 28.487065l-41.68215 69.606632a82.597143 82.597143 0 0 0-110.368195 28.384777 75.181301 75.181301 0 0 0-10.740185 38.869244h-83.415443a79.477375 79.477375 0 0 0-80.602538-77.891919 81.829987 81.829987 0 0 0-40.352412 10.484467l-41.733293-69.606633a76.715613 76.715613 0 0 0 29.66337-106.430126 78.403356 78.403356 0 0 0-29.765658-28.538208l41.68215-69.606633a82.648287 82.648287 0 0 0 110.521626-28.333633 74.823294 74.823294 0 0 0 10.740186-39.22725h83.364299a79.528519 79.528519 0 0 0 80.653681 78.301069 82.187993 82.187993 0 0 0 40.4547-10.586755l41.835581 69.606633a76.715613 76.715613 0 0 0-29.867946 106.48127z m-174.707022-122.080111a82.904006 82.904006 0 1 0 85.921487 82.852861 84.387174 84.387174 0 0 0-85.921487-82.852861z m-317.0912-209.996205a354.732994 354.732994 0 0 0-170.71781-39.943262 280.114274 280.114274 0 0 0-152.152632 51.808611l-40.914994-438.506443a385.930676 385.930676 0 0 1 179.003097-51.859755 418.816102 418.816102 0 0 1 185.140346 39.943263 418.355809 418.355809 0 0 0 185.089202 39.943262 412.065128 412.065128 0 0 0 185.089201-53.85436 1433.76366 1433.76366 0 0 0 12.121067 214.241135c11.353911 79.068225 31.095395 196.033963 31.095395 196.033962a626.203976 626.203976 0 0 1-228.305663 78.096494 421.680152 421.680152 0 0 1-185.447209-35.902907z m-327.319948 448.99091c0 0.40915 0.255719 0.767156 0.255719 1.22745a47.56368 47.56368 0 0 1-47.97283 47.001099 47.052243 47.052243 0 0 1-46.591949-40.301269h-1.790031L0.10285 48.126261a48.177405 48.177405 0 0 1 96.35481 0L177.622778 975.413445z" fill="#ffffff" /></svg>