<?xml version="1.0" standalone="no"?><!DOCTYPE svg PUBLIC "-//W3C//DTD SVG 1.1//EN" "http://www.w3.org/Graphics/SVG/1.1/DTD/svg11.dtd"><svg t="1565921570325" class="icon" viewBox="0 0 1024 1024" version="1.1" xmlns="http://www.w3.org/2000/svg" p-id="31761" xmlns:xlink="http://www.w3.org/1999/xlink" width="128" height="128"><defs><style type="text/css"></style></defs><path d="M934.403503 143.867769c-13.540496-10.155372-30.466116-16.92562-45.699174-16.92562h-5.077686c-1.692562 0-11.847934 1.692562-28.773553 1.692562-28.773554 0-84.628099-1.692562-137.097521-13.540496-67.702479-16.92562-145.560331-88.013223-169.256198-101.553719C536.651437 3.385124 523.110941 0 511.263007 0s-27.080992 3.385124-38.928926 10.155372c-3.385124 1.692562-84.628099 84.628099-165.871074 103.246281-52.469421 11.847934-110.016529 13.540496-138.790083 13.540496-16.92562 0-27.080992-1.692562-30.466115-1.692562H133.821685c-16.92562 0-33.85124 6.770248-47.391736 16.92562-13.540496 13.540496-20.310744 30.466116-20.310744 49.084297v160.793389c0 590.704132 414.677686 666.869421 431.603306 670.254545 3.385124 1.692562 8.46281 1.692562 11.847934 1.692562 3.385124 0 8.46281 0 11.847934-1.692562 16.92562-3.385124 434.98843-79.550413 434.98843-670.254545v-160.793389c0-18.618182-6.770248-35.543802-22.003306-47.391735zM463.871271 726.109091c-88.013223-18.618182-157.408264-86.320661-176.026446-170.94876h176.026446v170.94876z m0-262.347108H289.537387c18.618182-82.935537 88.013223-148.945455 174.333884-165.871074v165.871074z m94.783471-167.563636c86.320661 18.618182 154.02314 82.935537 174.333885 165.871074H558.654742v-165.871074z m0 429.910744V555.160331h176.026447c-18.618182 84.628099-88.013223 152.330579-176.026447 170.94876z" fill="#ffffff" p-id="31762"></path></svg>