<?xml version="1.0" standalone="no"?><!DOCTYPE svg PUBLIC "-//W3C//DTD SVG 1.1//EN" "http://www.w3.org/Graphics/SVG/1.1/DTD/svg11.dtd"><svg class="icon" width="200px" height="199.80px" viewBox="0 0 1025 1024" version="1.1" xmlns="http://www.w3.org/2000/svg"><path d="M995.394435 452.656416a97.332379 97.332379 0 0 0-5.134886-5.555471L581.404504 35.362297c-18.574892-18.573452-43.269878-28.801454-69.536297-28.801454s-50.962845 10.229442-69.608315 28.873472L33.557525 447.020285a98.379521 98.379521 0 0 0-9.670582 11.267942C8.46356 474.86822 0 496.355522 0 519.06713c0 49.244494 40.063635 89.309569 89.308129 89.309569h3.364683v305.156272c0 60.911416 49.554172 110.465588 110.465588 110.465589h618.884131c60.911416 0 110.464148-49.554172 110.464148-110.465589V608.376699h3.210564c49.244494 0 89.308129-40.063635 89.308129-89.309569a89.155451 89.155451 0 0 0-29.610937-66.410714z m-357.56956 489.683771c0 45.100576-37.999598 38.44755-83.098733 38.44755h-84.446912c-45.099136 0-83.098734 6.651586-83.098733-38.44755V703.00264c0-45.100576 36.559237-81.658373 81.658372-81.658373h87.327633c45.099136 0 81.658373 36.559237 81.658373 81.658373v239.337547z" /></svg>