<?xml version="1.0" standalone="no"?><!DOCTYPE svg PUBLIC "-//W3C//DTD SVG 1.1//EN" "http://www.w3.org/Graphics/SVG/1.1/DTD/svg11.dtd"><svg t="1565921375365" class="icon" viewBox="0 0 1024 1024" version="1.1" xmlns="http://www.w3.org/2000/svg" p-id="25550" xmlns:xlink="http://www.w3.org/1999/xlink" width="128" height="128"><defs><style type="text/css"></style></defs><path d="M1007.30695561 989.47785727c-43.87334228-184.72986578-182.42074402-323.27726751-353.29586963-369.45973476 110.8379214-50.80071396 187.03899074-163.94775712 187.03899075-295.56778719 0-177.80249729-143.16564845-323.27726751-316.34989902-323.27726752-175.49337234 0-316.34989904 145.47477023-316.34989585 323.27726752 0 131.62003006 76.20106937 244.76707322 187.03899074 295.56778719-173.18425057 46.18246724-309.42252734 187.03899074-353.29587283 369.45973476-2.30912177 6.92736849 0 13.85474017 4.61824674 20.78210868 4.61824672 4.61824672 11.54561521 9.23649346 18.47298689 9.23649344h923.64933531c6.92736849 0 13.85474017-2.30912177 18.4729869-9.23649344 0-6.92736849 2.30912177-13.85474017 0-20.78210868zM524.70017771 128.17485113c-106.21967467 0-191.65723747 87.74668777-191.6572375 196.27548419 0 6.92736849-4.61824672 11.54561521-11.5456152 11.54561523s-11.54561521-4.61824672-11.54561841-11.54561523c0-120.07441484 96.98318122-219.36671781 214.74847111-219.36671782 6.92736849 0 11.54561521 4.61824672 11.5456184 11.54561521s-6.92736849 11.54561521-11.5456184 11.54561842z" fill="#ffffff" p-id="25551"></path></svg>