<?xml version="1.0" standalone="no"?><!DOCTYPE svg PUBLIC "-//W3C//DTD SVG 1.1//EN" "http://www.w3.org/Graphics/SVG/1.1/DTD/svg11.dtd"><svg class="icon" width="200px" height="192.66px" viewBox="0 0 1063 1024" version="1.1" xmlns="http://www.w3.org/2000/svg"><path d="M860.987077 237.371077a469.976615 469.976615 0 0 0-82.432-18.432v106.889846l241.073231 243.554462a29.459692 29.459692 0 0 1 0 41.432615l-8.507077 8.585846a29.617231 29.617231 0 0 1-20.48 8.585846 27.687385 27.687385 0 0 1-20.48-8.585846l-65.457231-50.727384L905.846154 905.846154h66.599384c51.2 6.931692 39.227077 56.162462 39.227077 78.296615 0 21.819077-17.447385 39.542154-39.227077 39.857231H60.455385a39.778462 39.778462 0 0 1-39.778462-39.857231C20.637538 961.811692 15.517538 905.846154 62.700308 905.846154h56.832l-1.10277-337.132308-56.32 50.806154a27.923692 27.923692 0 0 1-20.48 8.585846 29.617231 29.617231 0 0 1-20.48-8.585846l-8.507076-8.585846a29.538462 29.538462 0 0 1 0-41.511385L472.694154 104.763077a60.652308 60.652308 0 0 1 43.756308-18.313846 63.409231 63.409231 0 0 1 43.795692 18.353231l159.192615 161.20123V29.538462a29.577846 29.577846 0 1 1 59.116308 0v15.832615a565.169231 565.169231 0 0 1 122.801231 24.891077 164.391385 164.391385 0 0 0 126.818461-12.288v182.114461c-25.6 7.010462-51.987692 10.633846-78.454154 10.712616a303.931077 303.931077 0 0 1-88.733538-13.469539zM393.846154 866.461538h236.307692v-236.307692h-236.307692v236.307692z" fill="#666666" /></svg>