<?xml version="1.0" standalone="no"?><!DOCTYPE svg PUBLIC "-//W3C//DTD SVG 1.1//EN" "http://www.w3.org/Graphics/SVG/1.1/DTD/svg11.dtd"><svg t="1568254693101" class="icon" viewBox="0 0 1024 1024" version="1.1" xmlns="http://www.w3.org/2000/svg" p-id="6036" xmlns:xlink="http://www.w3.org/1999/xlink" width="200" height="200"><defs><style type="text/css"></style></defs><path d="M449.024 549.478l131.738 131.738 127.283-127.232a41.216 41.216 0 0 1 29.184-12.083h284.518c0.512-9.933 0.87-19.866 0.87-29.901 0-282.778-229.222-512-512-512C240.334 0 18.894 209.664 0 475.29h243.098l144.384-144.384a41.318 41.318 0 0 1 58.368 0l161.024 160.972a41.37 41.37 0 0 1-58.47 58.47L416.665 418.612 289.434 545.843a41.267 41.267 0 0 1-29.236 12.135H0.768C24.013 819.2 243.456 1024 510.668 1024c244.071 0 448.257-170.854 499.56-399.462H754.38L609.997 768.922a41.37 41.37 0 0 1-58.368 0L390.605 607.949a41.318 41.318 0 0 1 58.368-58.47z" p-id="6037" fill="#ffffff"></path></svg>