<?xml version="1.0" standalone="no"?><!DOCTYPE svg PUBLIC "-//W3C//DTD SVG 1.1//EN" "http://www.w3.org/Graphics/SVG/1.1/DTD/svg11.dtd"><svg t="1568254760059" class="icon" viewBox="0 0 1024 1024" version="1.1" xmlns="http://www.w3.org/2000/svg" p-id="8307" xmlns:xlink="http://www.w3.org/1999/xlink" width="200" height="200"><defs><style type="text/css"></style></defs><path d="M929.3 847.1c-3.5-80.5-43.6-151.9-104.1-197.9V430.9c0-126.1-90.2-232.2-209.5-257.3v-5c0-57.5-47.2-104.6-104.9-104.6C453.2 64 406 111.1 406 168.6v5c-119.2 25.1-209.5 131.2-209.5 257.3v218.4C136 695.3 95.9 766.7 92.4 847.2h104.1v0.7h628.7v-0.7h104.1v-0.1zM488.7 1024h26c68.3 0 125-51.5 133.2-117.4H374c8.2 65.9 65 117.4 133.2 117.4h-18.5z" p-id="8308" fill="#ffffff"></path></svg>