<?xml version="1.0" standalone="no"?><!DOCTYPE svg PUBLIC "-//W3C//DTD SVG 1.1//EN" "http://www.w3.org/Graphics/SVG/1.1/DTD/svg11.dtd"><svg class="icon" width="200px" height="200.00px" viewBox="0 0 1024 1024" version="1.1" xmlns="http://www.w3.org/2000/svg"><path d="M512 0C229.236364 0 0 229.236364 0 512s229.236364 512 512 512 512-229.236364 512-512S794.763636 0 512 0z m0 69.818182a442.181818 442.181818 0 0 1 442.181818 442.181818 440.133818 440.133818 0 0 1-69.352727 237.847273 511.255273 511.255273 0 0 0-281.320727-152.203637 209.221818 209.221818 0 0 0 118.690909-188.509091 209.454545 209.454545 0 1 0-418.909091 0 209.221818 209.221818 0 0 0 118.690909 188.509091 511.255273 511.255273 0 0 0-282.158546 153.134546A440.087273 440.087273 0 0 1 69.818182 512c0-244.224 198.004364-442.181818 442.181818-442.181818z" /></svg>